<?xml version="1.0" encoding="utf-8"?><svg viewBox="0 0 180 59" xmlns="http://www.w3.org/2000/svg" xmlns:xlink="http://www.w3.org/1999/xlink"><style>:root>svg{display:none}:root>svg:target{display:block}</style><svg fill="none" viewBox="0 0 21 20" id="arrow" xmlns="http://www.w3.org/2000/svg"><path d="M1.25 13.701a1.5 1.5 0 1 0 1.5 2.598l-1.5-2.598zm19.52-8.313a1.5 1.5 0 0 0-1.061-1.837L6.669.057a1.5 1.5 0 1 0-.777 2.898L17.483 6.06l-3.105 11.59a1.5 1.5 0 1 0 2.897.777l3.494-13.04zM2.75 16.3l17.32-10-1.5-2.598-17.32 10 1.5 2.598z" fill="#B9FF66"/></svg><svg fill="none" viewBox="0 0 24 24" id="arrow-left" xmlns="http://www.w3.org/2000/svg"><path d="M22 13.5a1.5 1.5 0 0 0 0-3v3zM.94 10.94a1.5 1.5 0 0 0 0 2.12l9.545 9.547a1.5 1.5 0 1 0 2.122-2.122L4.12 12l8.486-8.485a1.5 1.5 0 1 0-2.122-2.122L.94 10.94zM22 10.5H2v3h20v-3z" fill="#fff"/></svg><svg fill="none" viewBox="0 0 24 24" id="arrow-right" xmlns="http://www.w3.org/2000/svg"><path d="M2 10.5a1.5 1.5 0 0 0 0 3v-3zm21.06 2.56a1.5 1.5 0 0 0 0-2.12l-9.545-9.547a1.5 1.5 0 1 0-2.122 2.122L19.88 12l-8.486 8.485a1.5 1.5 0 1 0 2.122 2.122l9.546-9.546zM2 13.5h20v-3H2v3z" fill="#fff"/></svg><svg fill="none" viewBox="0 0 41 41" id="black-green-icon" xmlns="http://www.w3.org/2000/svg"><circle cx="20.5" cy="20.5" r="20.5" fill="#191A23"/><path d="M11.25 24.701a1.5 1.5 0 1 0 1.5 2.598l-1.5-2.598zm19.52-8.313a1.5 1.5 0 0 0-1.061-1.837l-13.04-3.494a1.5 1.5 0 1 0-.777 2.898l11.591 3.106-3.105 11.59a1.5 1.5 0 1 0 2.897.777l3.494-13.04zM12.75 27.3l17.32-10-1.5-2.598-17.32 10 1.5 2.598z" fill="#B9FF66"/></svg><svg viewBox="0 0 125 48" id="company_logo-1" xmlns="http://www.w3.org/2000/svg"><g style="mix-blend-mode:luminosity" fill-rule="evenodd" clip-rule="evenodd"><path d="M76.65 37.807C69.47 42.497 59.065 45 50.105 45 37.54 45 26.23 40.88 17.673 34.032c-.673-.539-.07-1.273.736-.854 9.235 4.762 20.653 7.627 32.448 7.627 7.954 0 16.704-1.459 24.75-4.485 1.216-.458 2.232.705 1.044 1.487z" fill="#F90"/><path d="M79.636 34.78c-.914-1.04-6.067-.49-8.38-.248-.704.076-.812-.467-.177-.858 4.104-2.56 10.837-1.82 11.623-.963.785.863-.205 6.845-4.061 9.7-.592.44-1.156.206-.893-.376.866-1.916 2.807-6.211 1.888-7.255z" fill="#F90"/><path d="M71.418 15.604v-2.489c0-.376.323-.629.71-.629h12.57c.403 0 .725.258.725.63v2.13c-.005.358-.344.825-.946 1.564l-6.513 8.241c2.42-.052 4.975.267 7.169 1.364.495.247.63.61.667.967v2.655c0 .363-.452.787-.925.568-3.867-1.798-9.004-1.993-13.28.019-.435.21-.892-.21-.892-.572V27.53c0-.405.005-1.096.462-1.711l7.546-9.59h-6.567c-.403 0-.726-.254-.726-.625zm-45.85 15.525h-3.824c-.365-.024-.656-.267-.683-.577V13.158c0-.348.329-.624.737-.624h3.566c.371.014.667.267.694.581v2.274h.07c.93-2.197 2.678-3.222 5.034-3.222 2.393 0 3.888 1.025 4.964 3.222.925-2.197 3.028-3.222 5.281-3.222 1.603 0 3.357.586 4.427 1.902 1.21 1.463.962 3.59.962 5.453L46.791 30.5c0 .348-.328.629-.737.629h-3.818c-.382-.024-.689-.296-.689-.63v-9.218c0-.734.076-2.565-.107-3.26-.285-1.168-1.14-1.497-2.248-1.497-.925 0-1.894.548-2.286 1.425-.393.877-.355 2.345-.355 3.332V30.5c0 .348-.328.629-.737.629h-3.819c-.387-.024-.688-.296-.688-.63l-.005-9.218c0-1.94.36-4.796-2.356-4.796-2.748 0-2.64 2.784-2.64 4.796V30.5c0 .348-.329.629-.738.629zm70.676-18.962c5.674 0 8.745 4.318 8.745 9.81 0 5.305-3.393 9.514-8.745 9.514-5.572 0-8.605-4.319-8.605-9.7 0-5.415 3.071-9.624 8.605-9.624zm.032 3.551c-2.818 0-2.995 3.404-2.995 5.525 0 2.126-.038 6.664 2.963 6.664 2.964 0 3.103-3.661 3.103-5.892 0-1.468-.07-3.222-.57-4.614-.43-1.211-1.285-1.683-2.5-1.683zm16.071 15.411h-3.808c-.382-.024-.688-.296-.688-.63l-.006-17.398c.033-.32.35-.567.737-.567h3.544c.334.014.608.214.683.486v2.66h.07c1.071-2.379 2.571-3.513 5.212-3.513 1.716 0 3.388.548 4.464 2.05 1 1.391 1 3.732 1 5.414v10.95c-.043.305-.36.548-.737.548h-3.834c-.35-.024-.64-.253-.678-.548v-9.448c0-1.902.247-4.686-2.393-4.686-.931 0-1.786.553-2.211 1.392-.538 1.063-.607 2.122-.607 3.294V30.5c-.006.348-.339.629-.748.629zM61.398 22.82c0 1.32.038 2.422-.715 3.595-.608.953-1.576 1.54-2.646 1.54-1.468 0-2.329-.992-2.329-2.456 0-2.888 2.92-3.413 5.69-3.413v.734zm3.857 8.261c-.253.2-.619.215-.904.081-1.27-.934-1.5-1.368-2.194-2.26-2.098 1.898-3.587 2.465-6.303 2.465-3.222 0-5.723-1.759-5.723-5.281 0-2.75 1.678-4.624 4.077-5.54 2.076-.81 4.975-.953 7.19-1.177v-.438c0-.806.07-1.76-.467-2.455-.463-.624-1.356-.882-2.146-.882-1.458 0-2.754.663-3.071 2.036-.065.305-.318.605-.667.62l-3.706-.354c-.312-.062-.661-.286-.57-.71.85-3.985 4.916-5.186 8.551-5.186 1.861 0 4.292.438 5.76 1.687 1.862 1.54 1.684 3.595 1.684 5.83V24.8c0 1.587.742 2.283 1.441 3.14.243.306.296.673-.016.902-.78.577-2.167 1.65-2.93 2.25l-.006-.01zM11.268 22.82c0 1.32.037 2.422-.716 3.595-.608.953-1.57 1.54-2.646 1.54-1.468 0-2.323-.992-2.323-2.456 0-2.888 2.92-3.413 5.684-3.413v.734zm3.856 8.261c-.253.2-.619.215-.904.081-1.27-.934-1.495-1.368-2.194-2.26-2.098 1.898-3.582 2.465-6.304 2.465C2.506 31.367 0 29.608 0 26.086c0-2.75 1.683-4.624 4.077-5.54 2.076-.81 4.975-.953 7.19-1.177v-.438c0-.806.07-1.76-.462-2.455-.468-.624-1.36-.882-2.146-.882-1.457 0-2.759.663-3.076 2.036-.065.305-.318.605-.662.62l-3.71-.354c-.313-.062-.657-.286-.571-.71C1.495 13.201 5.556 12 9.191 12c1.861 0 4.292.438 5.76 1.687 1.861 1.54 1.684 3.595 1.684 5.83V24.8c0 1.587.742 2.283 1.441 3.14.248.306.302.673-.01.902-.78.577-2.168 1.65-2.931 2.25l-.011-.01z"/></g></svg><svg fill="none" viewBox="0 0 127 48" id="company_logo-2" xmlns="http://www.w3.org/2000/svg"><g style="mix-blend-mode:luminosity" clip-path="url(#fa)"><path fill-rule="evenodd" clip-rule="evenodd" d="M125.59 30.563c-5.255 7.898-13.579 5.606-16.078 3.812-1.064.64-2.93 2.042-5.417 1.88-5.298-.345-7.195-7.054-7.195-7.054.038.026-1.578.494-2.452.486-.01 1.967-1.93 6.668-7.11 6.607-5.811-.067-6.993-7.74-6.993-7.74s-.578.71-2.777 1.42c.11-1.512.03 6.09-6.936 6.202-5.507.089-6.994-7.741-6.994-7.741s-.955.88-2.807 1.184c.118-1.536-.073 6.583-7.04 6.557-4.708-.017-6.317-4.823-6.192-5.49.16-.85-1.59 5.61-6.164 5.509-1.887-.05-3.294-1.26-4.177-2.875-1.182 1.199-2.898 2.875-4.823 2.875-3.455 0-4.978-2.561-4.72-9.877.022-.868-.049-1.209-1.022-1.339-.584-.086-1.183-.25-1.816-.336-.202.6-1.923 11.357-7.84 11.561-1.985.069-3.07-1.456-3.962-2.587-1.366 1.602-3.17 2.638-5.74 2.638-4.352 0-7.317-3.119-7.317-6.966s2.965-6.965 7.318-6.965c.77 0 .985.098 1.688.28C7.58 10.937 10.994 9.113 13.98 9.113c2.868 0 7.767 5.899.873 20.862 1.53 4.463 4.83 4.21 6.416-4.977.323-1.867-.54-4.388.802-4.74 2.453-.642 2.713 1.287 3.864 1.608 1.216.34 1.926.306 3.094.523 1.995.345 2.773 1.295 2.53 3.41-.292 2.678-.802 6.574.755 7.05 1.123.344 3.172-1.72 3.532-2.849.36-1.129.435-1.515.467-2.344.049-1.77.11-3.067.45-4.406.146-.518.312-.861.974-.885.544-.012 1.539-.157 1.977.145.584.389.51.783.444 1.822-.68 14.803 4.547 7.413 6.105 1.496-.555-6.691-.174-16.592 4.557-16.759 2.46-.086 3.548 1.661 3.667 2.965.339 3.683-1.557 9.783-4.05 13.886-1.425 8.37 6.23 10.026 7.454 3.344-2.003-.844-4.167-4.26-2.406-5.924.988-.934 5.102.408 5.17 3.335 2.017-.479 2.287-1.488 2.315-1.321-.555-6.691-.04-16.118 4.69-16.284 2.46-.087 3.548 1.66 3.668 2.964.338 3.683-1.557 9.783-4.05 13.886-1.425 8.37 6.23 10.026 7.453 3.344-1.482-.253-4.612-3.886-2.806-5.924.965-1.09 5.064 1.175 5.522 3.432 1.939-.486 2.202-1.464 2.23-1.3-.555-6.69-.04-16.118 4.69-16.284 2.46-.086 3.548 1.66 3.668 2.965.339 3.682-1.557 9.783-4.05 13.885-1.425 8.372 6.23 10.026 7.454 3.345-2.038-.301-4.934-4.137-2.603-6.1.931-.784 4.49 1.252 5.322 3.574 1.157-.04 1.878-.393 2.032-.43-1.847-7.854-.472-17.279 4.617-17.357 2.751-.043 5.441 1.318 4.26 8.79-1.127 7.13-5.177 10.123-5.167 10.169.235.854 2.314 8.002 7.547 4.23-.271-.543-.542-1.099-.694-1.772-.867-3.92.837-8.347 5.468-9.062 2.653-.41 5.153.735 5.548 3.316.65 4.224-3.653 7.282-5.289 7.946-.733-.37 6.643 3.824 11.021-4.579.254-.48.56-.44.956-.192.28.175 1.875 1.514 1.133 2.647zM10.502 28.252c-.223-.59-.68-1.891-.842-2.454C8.77 25.11 8.135 25 6.992 25c-2.54 0-4.034 2.08-4.034 4.325 0 2.243 1.628 4.325 4.168 4.325 2.2 0 3.875-1.326 4.386-3.204-.357-.732-.712-1.404-1.01-2.194zm3.416-16.05c-1.784 0-2.39 3.772-2.272 6.99.104 2.846 1 5.35 1.466 6.473.118.14.096.05.202.199 3.098-6.017 1.813-13.663.604-13.663zm37.156.118c-2.306-.235-2.29 8.28-2.005 10.19 1.198-1.698 3.279-9.733 2.005-10.19zm16.841 0c-2.306-.235-2.291 8.28-2.005 10.19 1.198-1.698 3.279-9.733 2.005-10.19zm16.707.118c-2.306-.234-2.291 8.28-2.005 10.19 1.198-1.698 3.279-9.732 2.005-10.19zm16.44-.617c-3.593.64-2.757 11.258-2.21 13.12 4.232-5.152 4.319-13.313 2.21-13.12zm13.466 13.27c-.182-.678-1.096-1.04-1.726-.95-1.805.218-3.554 2.21-2.877 5.241.151.676.528 1.297.522 1.276 4.038-2.4 4.381-4.292 4.081-5.568zm-76.084-5.07a2.85 2.85 0 0 1-1.449-.388 2.396 2.396 0 0 1-.96-1.037 2.066 2.066 0 0 1-.149-1.335c.1-.449.35-.86.714-1.183a2.724 2.724 0 0 1 1.334-.633 2.919 2.919 0 0 1 1.507.131c.476.175.883.472 1.17.852.286.38.44.826.44 1.283 0 .304-.068.604-.2.885a2.31 2.31 0 0 1-.564.749 2.65 2.65 0 0 1-.846.5 2.9 2.9 0 0 1-.997.177z" fill="#0D0C22"/></g><defs><clipPath id="fa"><path fill="#fff" transform="translate(.018)" d="M0 0h126.369v48H0z"/></clipPath></defs></svg><svg fill="none" viewBox="0 0 129 48" id="company_logo-3" xmlns="http://www.w3.org/2000/svg"><g style="mix-blend-mode:luminosity" clip-path="url(#ga)"><path d="M14.18 13.106v9.088H4.765v-9.088H.293V34.8h4.47v-8.793h9.418V34.8h4.47V13.106h-4.47zm18.78 14.681c0 .87-.39 1.703-1.084 2.318-.693.615-1.634.96-2.615.96-.98 0-1.922-.345-2.615-.96-.694-.615-1.084-1.449-1.084-2.318v-9.292h-4.24v9.292c0 1.864.835 3.652 2.323 4.97 1.487 1.32 3.505 2.06 5.608 2.06 2.104 0 4.121-.74 5.609-2.06 1.487-1.318 2.323-3.106 2.323-4.97v-9.292H32.96v9.292zm31.421-8.334c0-1.905 1.422-2.508 2.98-2.508 1.254 0 2.912.846 3.997 1.873l2.777-2.9c-1.386-1.662-4.199-2.811-6.501-2.811-4.6 0-7.927 2.387-7.927 6.346 0 7.344 10.128 5.015 10.128 9.125 0 1.267-1.388 2.387-2.979 2.387-2.508 0-3.32-1.087-4.473-2.236l-3.082 2.84c1.972 2.146 4.403 3.235 7.317 3.235 4.37 0 7.885-2.417 7.885-6.195 0-8.154-10.129-5.62-10.129-9.156m62.668 11.881c-2.506 0-3.218-.96-3.218-2.433v-6.513h3.895v-3.3h-3.895v-4.355l-4.299 1.71v13.268c0 3.394 2.641 5.104 6.264 5.104a9.773 9.773 0 0 0 1.696-.12l1.049-3.423a25.46 25.46 0 0 1-1.492.058m-77.94-12.725c-2.1 0-3.566.54-4.983 1.772v-7.14h-4.247V26.47c0 4.955 4.041 8.348 8.582 8.348 5.038 0 9.47-3.453 9.47-8.105 0-4.593-4.08-8.107-8.822-8.107v-.002zm-.026 12.427a5.27 5.27 0 0 1-2.677-.72c-.793-.47-1.41-1.136-1.775-1.917a3.823 3.823 0 0 1-.274-2.468 4.145 4.145 0 0 1 1.319-2.186 5.038 5.038 0 0 1 2.467-1.17 5.396 5.396 0 0 1 2.784.244c.88.323 1.634.87 2.163 1.573a3.93 3.93 0 0 1 .812 2.373c0 1.133-.508 2.219-1.411 3.02-.904.8-2.13 1.25-3.408 1.25zm46.144-4.517c0-4.66-4.422-8.105-9.469-8.105-4.54 0-8.582 3.393-8.582 8.348V40h4.247v-7.15c1.415 1.23 2.883 1.773 4.981 1.773 4.743 0 8.822-3.512 8.822-8.108h.002zm-4.02-.046c0 .844-.284 1.67-.813 2.373a4.742 4.742 0 0 1-2.163 1.573c-.88.323-1.85.408-2.784.243a5.038 5.038 0 0 1-2.468-1.17 4.146 4.146 0 0 1-1.319-2.186 3.823 3.823 0 0 1 .275-2.468c.365-.78.982-1.447 1.775-1.917a5.27 5.27 0 0 1 2.677-.72c1.278 0 2.504.45 3.408 1.252.903.8 1.411 1.887 1.411 3.02z" fill="#33475B"/><path d="M108.9 18.35v-3.743a3.163 3.163 0 0 0 1.362-1.058c.332-.46.51-.994.513-1.54v-.087c-.003-.763-.346-1.494-.954-2.034-.609-.54-1.434-.843-2.295-.845h-.098c-.861.002-1.686.306-2.295.845-.608.54-.951 1.27-.954 2.034v.087c.003.546.181 1.08.513 1.54.332.46.804.827 1.362 1.058v3.743a9.833 9.833 0 0 0-4.381 1.708l-11.596-7.997c.082-.263.127-.535.131-.81a2.989 2.989 0 0 0-.615-1.804 3.604 3.604 0 0 0-1.643-1.198 4.103 4.103 0 0 0-2.117-.187 3.832 3.832 0 0 0-1.878.887 3.153 3.153 0 0 0-1.005 1.662c-.142.63-.07 1.283.206 1.876a3.366 3.366 0 0 0 1.348 1.46 4.006 4.006 0 0 0 3.847.112l11.401 7.867c-1.027 1.373-1.563 2.989-1.537 4.636.025 1.647.61 3.25 1.68 4.597l-3.47 3.075a3.333 3.333 0 0 0-.861-.124c-.596 0-1.178.157-1.673.45-.496.293-.882.71-1.11 1.198a2.389 2.389 0 0 0-.171 1.542c.116.518.403.994.824 1.367.422.373.958.628 1.542.73a3.37 3.37 0 0 0 1.74-.151 2.963 2.963 0 0 0 1.352-.983c.331-.44.508-.956.508-1.484a2.353 2.353 0 0 0-.14-.763l3.432-3.042a9.862 9.862 0 0 0 3.805 1.525 10.4 10.4 0 0 0 4.173-.112 9.706 9.706 0 0 0 3.693-1.726A8.332 8.332 0 0 0 116 29.67a7.377 7.377 0 0 0 .728-3.643 7.512 7.512 0 0 0-1.153-3.557 8.645 8.645 0 0 0-2.799-2.746 9.963 9.963 0 0 0-3.876-1.375zm-1.422 12.312a5.192 5.192 0 0 1-2.638-.71c-.781-.462-1.39-1.12-1.749-1.888a3.765 3.765 0 0 1-.271-2.432 4.092 4.092 0 0 1 1.3-2.155 4.962 4.962 0 0 1 2.432-1.152 5.313 5.313 0 0 1 2.743.24c.868.318 1.61.857 2.132 1.55.522.692.8 1.506.8 2.338 0 1.116-.5 2.187-1.391 2.976-.89.79-2.098 1.233-3.358 1.233z" fill="#FF7A59"/></g><defs><clipPath id="ga"><path fill="#fff" transform="translate(.293)" d="M0 0h128.626v48H0z"/></clipPath></defs></svg><svg fill="none" viewBox="0 0 147 48" id="company_logo-4" xmlns="http://www.w3.org/2000/svg"><g style="mix-blend-mode:luminosity" clip-path="url(#ha)" fill="#000"><path d="M51.525 34.775V20.22h.293l11.954 14.555h3.761V13.4h-4.18v14.518h-.292L51.107 13.401h-3.762v21.374h4.18zm27.837.33c5.517 0 8.903-3.153 8.903-8.432 0-5.243-3.386-8.433-8.903-8.433-5.476 0-8.903 3.19-8.903 8.433.042 5.279 3.386 8.432 8.903 8.432zm0-3.08c-2.926 0-4.598-1.943-4.598-5.352 0-3.373 1.672-5.353 4.598-5.353s4.598 1.98 4.598 5.352c0 3.41-1.672 5.353-4.598 5.353zm12.706-17.414v4.069h-2.926v2.933h2.926v8.836c0 3.153 1.672 4.4 5.935 4.4.794 0 1.589-.074 2.216-.184v-2.86c-.502.037-.836.074-1.422.074-1.755 0-2.55-.697-2.55-2.31v-7.956h3.972V18.68h-3.971v-4.07h-4.18zm10.658 20.164h4.18V18.57h-4.18v16.205zm2.09-18.881c1.38 0 2.508-.99 2.508-2.2 0-1.247-1.128-2.237-2.508-2.237-1.379 0-2.508.99-2.508 2.237 0 1.21 1.129 2.2 2.508 2.2zm13.542 19.21c5.518 0 8.903-3.152 8.903-8.431 0-5.243-3.385-8.433-8.903-8.433-5.475 0-8.902 3.19-8.902 8.433 0 5.279 3.343 8.432 8.902 8.432zm0-3.079c-2.925 0-4.597-1.943-4.597-5.352 0-3.373 1.672-5.353 4.597-5.353 2.884 0 4.598 1.98 4.598 5.352-.042 3.41-1.714 5.353-4.598 5.353zm11.369 2.75h4.18v-9.422c0-2.383 1.588-3.887 4.054-3.887 2.55 0 3.72 1.247 3.72 3.703v9.606h4.18V24.289c0-3.886-2.257-6.049-6.353-6.049-2.759 0-4.598 1.1-5.476 2.933h-.292V18.57h-4.055c.042 0 .042 16.205.042 16.205z"/><path fill-rule="evenodd" clip-rule="evenodd" d="M7.27 12.033c1.216.87 1.656.8 3.933.663l21.457-1.144c.466 0 .078-.412-.077-.458L29.01 8.828c-.673-.458-1.605-1.007-3.339-.87L4.914 9.308c-.75.07-.906.413-.596.665l2.951 2.06zm1.293 4.417v19.96c0 1.076.596 1.465 1.967 1.396l23.58-1.213c1.372-.069 1.527-.801 1.527-1.671V15.1c0-.87-.388-1.35-1.217-1.282L9.78 15.1c-.906.068-1.217.48-1.217 1.35zm23.27 1.076c.155.595 0 1.213-.674 1.282l-1.139.206v14.74c-.983.459-1.89.733-2.666.733-1.216 0-1.527-.343-2.433-1.35l-7.428-10.323v9.98l2.355.457s0 1.213-1.89 1.213l-5.227.275c-.156-.275 0-.938.517-1.076l1.372-.343V20.136l-1.89-.138c-.155-.595.233-1.465 1.295-1.534l5.616-.343 7.74 10.438v-9.225l-1.968-.206c-.155-.732.466-1.282 1.217-1.35l5.202-.252zM3.18 7.478 24.792 6.08c2.64-.206 3.339-.068 4.995 1.007l6.885 4.28c1.14.733 1.528.94 1.528 1.74v23.508c0 1.465-.596 2.335-2.718 2.472L10.4 40.438c-1.605.07-2.355-.137-3.184-1.075l-5.099-5.837C1.212 32.45.824 31.649.824 30.71V9.812c0-1.213.621-2.197 2.356-2.334z"/></g><defs><clipPath id="ha"><path fill="#fff" transform="translate(.824)" d="M0 0h145.551v48H0z"/></clipPath></defs></svg><svg fill="none" viewBox="0 0 126 48" id="company_logo-5" xmlns="http://www.w3.org/2000/svg"><g style="mix-blend-mode:luminosity" clip-path="url(#ia)"><path d="M17.501 38.066c-1.884.293-3.801.381-5.784.616l-6.05-15.703v16.377c-1.884.175-3.603.41-5.388.644V10h5.025l6.875 17.022V10h5.322v28.066zm10.413-17.08c2.05 0 5.19-.088 7.074-.088v4.688c-2.347 0-5.09 0-7.074.088v6.973c3.107-.176 6.214-.41 9.355-.499v4.512l-14.644 1.025V10h14.644v4.688h-9.355v6.298zm29.023-6.298h-5.488V36.25c-1.785 0-3.57 0-5.288.059V14.688h-5.488V10h16.264v4.688zm8.594 5.976h7.24v4.688h-7.24v10.634h-5.19V10h14.776v4.688h-9.586v5.976zm18.18 11.22c3.009.06 6.05.265 8.992.41v4.63c-4.727-.264-9.454-.527-14.28-.615V10h5.289v21.885zm13.454 5.362c1.686.088 3.471.176 5.19.351V10h-5.19v27.246zM125.527 10l-6.71 14.268L125.527 40c-1.983-.234-3.967-.557-5.95-.85l-3.801-8.671-3.868 7.968c-1.917-.293-3.768-.38-5.685-.615l6.809-13.74L106.884 10h5.685l3.471 7.88 3.702-7.88h5.785z" fill="#D81F26"/></g><defs><clipPath id="ia"><path fill="#fff" transform="translate(.28)" d="M0 0h125.241v48H0z"/></clipPath></defs></svg><svg fill="none" viewBox="0 0 111 48" id="company_logo-6" xmlns="http://www.w3.org/2000/svg"><g style="mix-blend-mode:luminosity" clip-path="url(#ja)"><path fill-rule="evenodd" clip-rule="evenodd" d="M90.36 20.597c.422.646.56 1.38.605 2.206l.06 1.1v7.698l.061 1.102c.123 1.799 1.62 3.13 3.666 3.243L95.99 36V23.904l.061-1.1c.051-.817.188-1.566.617-2.216a4.722 4.722 0 0 1 1.818-1.605 5.46 5.46 0 0 1 2.48-.584 5.46 5.46 0 0 1 2.478.592 4.719 4.719 0 0 1 1.811 1.61c.423.646.554 1.395.605 2.202l.061 1.098v7.7l.062 1.102c.127 1.808 1.613 3.139 3.665 3.243l1.237.054V22.803c0-2.333-1.046-4.571-2.907-6.222-1.861-1.65-4.386-2.578-7.019-2.579a10.991 10.991 0 0 0-4.087.778 9.917 9.917 0 0 0-3.36 2.203 9.931 9.931 0 0 0-3.362-2.202 11.004 11.004 0 0 0-4.086-.78c-2.062 0-3.975.555-5.56 1.512-.966-.956-3.13-1.512-4.371-1.512V36l1.241-.054c2.078-.122 3.579-1.416 3.66-3.243l.066-1.102v-7.697l.061-1.1c.053-.831.183-1.561.606-2.211a4.735 4.735 0 0 1 1.818-1.605 5.472 5.472 0 0 1 2.479-.587c.87 0 1.726.203 2.48.588.754.386 1.38.94 1.816 1.608zM5.39 35.947 6.63 36h18.616l-.061-1.097c-.168-1.809-1.613-3.13-3.66-3.248l-1.243-.054H9.115l14.89-13.202-.061-1.096c-.096-1.827-1.603-3.147-3.66-3.248l-1.243-.05-18.615-.004.061 1.1c.163 1.792 1.629 3.141 3.66 3.245l1.243.055h11.168L1.668 31.6l.06 1.102c.123 1.813 1.6 3.126 3.662 3.243zM71.259 17.22a11.015 11.015 0 0 1 2.69 3.569 9.924 9.924 0 0 1 .946 4.21 9.924 9.924 0 0 1-.945 4.209 11.015 11.015 0 0 1-2.691 3.569c-2.329 2.062-5.486 3.22-8.778 3.22-3.292 0-6.45-1.158-8.778-3.22-4.847-4.296-4.847-11.261 0-15.557a12.615 12.615 0 0 1 4.023-2.383A13.796 13.796 0 0 1 62.474 14a13.809 13.809 0 0 1 4.755.836 12.626 12.626 0 0 1 4.031 2.386zm-3.512 3.115c1.396 1.238 2.18 2.917 2.18 4.668 0 1.75-.784 3.429-2.18 4.667-1.397 1.237-3.291 1.932-5.266 1.932s-3.87-.695-5.266-1.932c-1.396-1.238-2.18-2.917-2.18-4.668 0-1.75.784-3.429 2.18-4.667 1.397-1.237 3.291-1.932 5.266-1.932s3.869.695 5.266 1.932zM36.425 14c1.63 0 3.242.285 4.747.838a12.614 12.614 0 0 1 4.024 2.384c4.848 4.295 4.848 11.261 0 15.556-2.329 2.062-5.486 3.22-8.778 3.22-3.292 0-6.45-1.158-8.778-3.22-4.847-4.296-4.847-11.261 0-15.557a12.615 12.615 0 0 1 4.023-2.383A13.796 13.796 0 0 1 36.41 14h.016zm5.259 6.334c1.396 1.238 2.18 2.917 2.18 4.668 0 1.75-.784 3.43-2.18 4.668-1.397 1.237-3.291 1.932-5.266 1.932s-3.87-.695-5.266-1.932c-1.396-1.239-2.18-2.917-2.18-4.668 0-1.75.784-3.429 2.18-4.667 1.397-1.237 3.29-1.932 5.266-1.932 1.975 0 3.869.695 5.266 1.932v-.001z" fill="#2D8CFF"/></g><defs><clipPath id="ja"><path fill="#fff" transform="translate(.426)" d="M0 0h110.573v48H0z"/></clipPath></defs></svg><svg fill="none" viewBox="0 0 30 30" id="facebook-icon" xmlns="http://www.w3.org/2000/svg"><path d="M30 15.091C30 6.755 23.286 0 15 0S0 6.755 0 15.091C0 22.637 5.444 28.905 12.641 30V19.473h-3.81V15.09h3.81v-3.286c0-3.773 2.238-5.902 5.625-5.902 1.694 0 3.387.304 3.387.304v3.712h-1.875c-1.875 0-2.48 1.156-2.48 2.373v2.8h4.174l-.666 4.38h-3.508V30C24.496 28.905 30 22.637 30 15.091z" fill="#fff"/></svg><svg fill="none" viewBox="0 0 30 30" id="in-icon" xmlns="http://www.w3.org/2000/svg"><circle cx="15" cy="15" r="15" fill="#fff"/><path d="M8.222 22.059h3.084v-9.985H8.222v9.985zM7.941 8.887c0 .984.795 1.781 1.823 1.781.981 0 1.776-.797 1.776-1.781 0-.985-.795-1.828-1.776-1.828A1.828 1.828 0 0 0 7.94 8.887zM19.81 22.059h3.131v-5.485c0-2.672-.607-4.781-3.738-4.781-1.495 0-2.523.844-2.944 1.64h-.047v-1.359h-2.944v9.985h3.085v-4.922c0-1.313.233-2.578 1.869-2.578 1.589 0 1.589 1.5 1.589 2.625v4.875z" fill="#000"/></svg><svg fill="none" viewBox="0 0 34 34" id="linkidn-icon" xmlns="http://www.w3.org/2000/svg"><circle cx="17" cy="17" r="17" fill="#000"/><path d="M9.318 25h3.495V13.684H9.318V25zM9 10.072c0 1.116.9 2.019 2.065 2.019a2.015 2.015 0 0 0 2.013-2.02c0-1.115-.9-2.071-2.013-2.071A2.071 2.071 0 0 0 9 10.072zM22.452 25H26v-6.216c0-3.028-.689-5.418-4.237-5.418-1.695 0-2.86.956-3.336 1.859h-.053v-1.54h-3.337V25h3.496v-5.578c0-1.488.264-2.922 2.118-2.922 1.8 0 1.8 1.7 1.8 2.975V25z" fill="#B9FF66"/></svg><svg fill="none" viewBox="0 0 180 30" id="logo-icon-white" xmlns="http://www.w3.org/2000/svg"><g clip-path="url(#na)"><path d="M14.757 4.959 29.19.78 24.979 15l4.21 14.178-14.43-4.137L.284 29.179 4.537 15 .285.781 14.757 4.96z" fill="#fff"/></g><path d="M40.11 25.473V2.917h9.117c1.4 0 2.645.28 3.739.838 1.115.537 1.978 1.31 2.59 2.32.635.988.952 2.18.952 3.576v.42c0 1.396-.328 2.599-.984 3.608A6.247 6.247 0 0 1 52.933 16c-1.093.537-2.329.806-3.706.806H43.65v8.668h-3.54zm3.541-11.826h5.215c1.246 0 2.241-.322 2.984-.967.744-.644 1.115-1.525 1.115-2.642v-.322c0-1.139-.371-2.03-1.115-2.675-.743-.644-1.738-.966-2.984-.966h-5.215v7.572zm23.445 12.277c-1.618 0-3.06-.323-4.329-.967a7.43 7.43 0 0 1-2.951-2.836c-.722-1.224-1.083-2.674-1.083-4.35v-.483c0-1.675.361-3.115 1.083-4.318a7.43 7.43 0 0 1 2.951-2.835c1.268-.666 2.711-1 4.33-1 1.617 0 3.06.334 4.329 1a7.376 7.376 0 0 1 2.984 2.835c.722 1.203 1.082 2.643 1.082 4.318v.483c0 1.676-.36 3.126-1.082 4.35a7.376 7.376 0 0 1-2.984 2.836c-1.269.644-2.712.967-4.33.967zm0-2.965c1.487 0 2.69-.462 3.608-1.385.94-.946 1.41-2.245 1.41-3.9v-.29c0-1.653-.459-2.942-1.377-3.866-.918-.945-2.132-1.418-3.64-1.418-1.465 0-2.668.473-3.608 1.418-.918.924-1.378 2.213-1.378 3.867v.29c0 1.654.46 2.953 1.378 3.899.94.923 2.143 1.385 3.607 1.385zm19.227 2.965c-2.055 0-3.76-.451-5.116-1.354-1.356-.902-2.187-2.266-2.493-4.092l3.148-.741c.175.88.47 1.579.886 2.094.415.516.93.881 1.541 1.096a6.295 6.295 0 0 0 2.034.322c1.071 0 1.891-.204 2.46-.612.59-.408.885-.934.885-1.579 0-.644-.273-1.117-.82-1.418-.547-.3-1.355-.547-2.427-.74l-1.115-.194a14.669 14.669 0 0 1-2.984-.838c-.897-.365-1.607-.87-2.132-1.514-.525-.645-.787-1.472-.787-2.481 0-1.504.568-2.664 1.705-3.48 1.137-.838 2.646-1.257 4.526-1.257 1.815 0 3.302.408 4.46 1.224 1.181.795 1.946 1.88 2.296 3.255l-3.148.87c-.197-.967-.613-1.644-1.247-2.03-.634-.408-1.42-.613-2.361-.613-.918 0-1.64.172-2.165.516-.524.322-.787.784-.787 1.386 0 .644.252 1.117.755 1.417.524.301 1.224.527 2.099.677l1.147.193c1.16.194 2.22.462 3.182.806.962.344 1.716.838 2.263 1.482.568.645.852 1.504.852 2.578 0 1.59-.6 2.825-1.803 3.706-1.203.88-2.82 1.32-4.854 1.32zm10.606-.451V9.587h3.378v15.886h-3.378zm1.705-18.045c-.656 0-1.213-.204-1.672-.612-.438-.43-.656-.978-.656-1.643 0-.666.218-1.203.656-1.612.459-.43 1.016-.644 1.672-.644.678 0 1.236.215 1.673.644.437.409.656.946.656 1.612 0 .665-.219 1.213-.656 1.643-.438.408-.995.612-1.673.612zm12.753 18.045c-.984 0-1.771-.29-2.361-.87-.568-.58-.853-1.354-.853-2.32V12.39h-4.46V9.587h4.46V4.335h3.378v5.252h4.821v2.803h-4.821v9.313c0 .644.306.966.919.966h3.378v2.804h-4.461zm8.954 0V9.587h3.378v15.886h-3.378zm1.705-18.045c-.656 0-1.213-.204-1.672-.612-.438-.43-.656-.978-.656-1.643 0-.666.218-1.203.656-1.612.459-.43 1.016-.644 1.672-.644.678 0 1.236.215 1.673.644.437.409.656.946.656 1.612 0 .665-.219 1.213-.656 1.643-.437.408-.995.612-1.673.612zm10.425 18.045-5.444-15.886h3.575l4.296 13.437h.525l4.296-13.437h3.575l-5.444 15.886h-5.379zm20.299.29c-1.224 0-2.317-.269-3.279-.806a5.739 5.739 0 0 1-2.263-2.288c-.547-.988-.82-2.17-.82-3.544V9.587h3.378v9.312c0 1.375.35 2.395 1.049 3.061.7.645 1.673.967 2.919.967 1.377 0 2.482-.451 3.312-1.353.853-.924 1.28-2.245 1.28-3.964V9.587h3.378v15.886h-3.313v-2.385h-.525c-.306.645-.852 1.257-1.639 1.837-.788.558-1.946.838-3.477.838zm20.572.161c-2.055 0-3.761-.451-5.116-1.354-1.356-.902-2.187-2.266-2.493-4.092l3.149-.741c.174.88.47 1.579.885 2.094.416.516.929.881 1.542 1.096a6.291 6.291 0 0 0 2.033.322c1.071 0 1.891-.204 2.46-.612.59-.408.885-.934.885-1.579 0-.644-.273-1.117-.82-1.418-.546-.3-1.355-.547-2.427-.74l-1.115-.194a14.661 14.661 0 0 1-2.984-.838c-.897-.365-1.607-.87-2.132-1.514-.525-.645-.787-1.472-.787-2.481 0-1.504.568-2.664 1.705-3.48 1.137-.838 2.646-1.257 4.526-1.257 1.815 0 3.302.408 4.46 1.224 1.181.795 1.946 1.88 2.296 3.255l-3.148.87c-.197-.967-.612-1.644-1.246-2.03-.635-.408-1.422-.613-2.362-.613-.918 0-1.64.172-2.164.516-.525.322-.787.784-.787 1.386 0 .644.251 1.117.754 1.417.525.301 1.224.527 2.099.677l1.148.193a18.56 18.56 0 0 1 3.181.806c.962.344 1.716.838 2.263 1.482.568.645.853 1.504.853 2.578 0 1.59-.602 2.825-1.804 3.706-1.203.88-2.821 1.32-4.854 1.32z" fill="#fff"/><defs><clipPath id="na"><path fill="#fff" transform="translate(0 .5)" d="M0 0h29.517v29H0z"/></clipPath></defs></svg><svg fill="none" viewBox="0 0 58 59" id="minus-icon" xmlns="http://www.w3.org/2000/svg"><circle cx="29" cy="29.5" r="28.5" fill="#F3F3F3" stroke="#191A23"/><path d="M20 32.14V26.5h17.76v5.64H20z" fill="#000"/></svg><svg fill="none" viewBox="0 0 14 14" id="pagination-active" xmlns="http://www.w3.org/2000/svg"><path d="M7.01 2.06 14 0l-2.04 7.01L14 14l-6.99-2.04L0 14l2.06-6.99L0 0l7.01 2.06z" fill="#B9FF66"/></svg><svg fill="none" viewBox="0 0 14 14" id="pagination-icon" xmlns="http://www.w3.org/2000/svg"><path d="M7.01 2.06 14 0l-2.04 7.01L14 14l-6.99-2.04L0 14l2.06-6.99L0 0l7.01 2.06z" fill="#fff"/></svg><svg fill="none" viewBox="0 0 58 59" id="plus-icon" xmlns="http://www.w3.org/2000/svg"><circle cx="29" cy="29.5" r="28.5" fill="#F3F3F3" stroke="#191A23"/><path d="M25.6 41.58v-9.72H16v-5.64h9.6V16.5h5.88v9.72h9.6v5.64h-9.6v9.72H25.6z" fill="#191A23"/></svg><svg fill="none" viewBox="0 0 30 30" id="plus-icon-mini" xmlns="http://www.w3.org/2000/svg"><circle cx="15" cy="15" r="14.5" fill="#F3F3F3" stroke="#191A23"/><path d="M13.243 21.248V16.22H8.277v-2.917h4.966V8.275h3.041v5.028h4.966v2.917h-4.966v5.028h-3.041z" fill="#191A23"/></svg><svg fill="none" viewBox="0 0 30 30" id="twitter-icon" xmlns="http://www.w3.org/2000/svg"><circle cx="15" cy="15" r="15" fill="#fff"/><path d="M21.996 11.492a7.667 7.667 0 0 0 1.792-1.862 6.785 6.785 0 0 1-2.068.552 3.536 3.536 0 0 0 1.586-2 7.642 7.642 0 0 1-2.275.897 3.62 3.62 0 0 0-2.654-1.138 3.619 3.619 0 0 0-3.619 3.62c0 .275.035.55.103.827a10.5 10.5 0 0 1-7.479-3.792 3.52 3.52 0 0 0-.482 1.827c0 1.24.62 2.344 1.62 2.999-.586-.035-1.172-.173-1.655-.448v.034a3.623 3.623 0 0 0 2.895 3.55c-.275.07-.62.138-.93.138-.242 0-.448-.035-.69-.069a3.602 3.602 0 0 0 3.378 2.516 7.277 7.277 0 0 1-4.48 1.551c-.31 0-.586-.034-.862-.069 1.585 1.034 3.48 1.62 5.549 1.62 6.652 0 10.271-5.48 10.271-10.271v-.482z" fill="#000"/></svg><svg fill="none" viewBox="0 0 41 41" id="white-black-icon" xmlns="http://www.w3.org/2000/svg"><circle cx="20.5" cy="20.5" r="20.5" fill="#fff"/><path d="M11.25 24.701a1.5 1.5 0 1 0 1.5 2.598l-1.5-2.598zm19.52-8.313a1.5 1.5 0 0 0-1.061-1.837l-13.04-3.494a1.5 1.5 0 1 0-.777 2.898l11.591 3.106-3.105 11.59a1.5 1.5 0 1 0 2.897.777l3.494-13.04zM12.75 27.3l17.32-10-1.5-2.598-17.32 10 1.5 2.598z" fill="#000"/></svg></svg>